ply
format ascii 1.0
comment Created in Blender version 4.0.2
element vertex 56
property float x
property float y
property float z
property float nx
property float ny
property float nz
property float s
property float t
element face 28
property list uchar uint vertex_indices
end_header
8 -3.9999995 -10 0 -1 -4.3711392e-08 1 0
-8 -4.0000005 10 0 -1 -4.3711392e-08 0 1
-8 -3.9999995 -10 0 -1 -4.3711392e-08 0 0
8 -4.0000005 10 0 -1 -4.3711392e-08 1 1
8 -4 10 0 0 -1 1 0
-8 4 10 0 0 -1 0 1
-8 -4 10 0 0 -1 0 0
8 4 10 0 0 -1 1 1
8 4 -10 0 -8.742278e-08 1 1 0
-8 -4 -10 0 -8.742278e-08 1 0 1
-8 4 -10 0 -8.742278e-08 1 0 0
8 -4 -10 0 -8.742278e-08 1 1 1
-8 4 -10 1 -8.7422784e-08 -4.3711392e-08 1 0
-8 -4 10 1 -8.7422784e-08 -4.3711392e-08 0 1
-7.999999 4 10 1 -8.7422784e-08 -4.3711392e-08 0 0
-8.000001 -4 -10 1 -8.7422784e-08 -4.3711392e-08 1 1
7.999999 4 10 -1 -8.7422784e-08 -4.3711392e-08 1 0
8.000001 -4 -10 -1 -8.7422784e-08 -4.3711392e-08 0 1
8 4 -10 -1 -8.7422784e-08 -4.3711392e-08 0 0
8 -4 10 -1 -8.7422784e-08 -4.3711392e-08 1 1
-5.0000005 4 7 -1 -8.742278e-08 -4.371139e-08 1 0
-4.9999995 -2 -7 -1 -8.742278e-08 -4.371139e-08 0 1
-5 4 -7 -1 -8.742278e-08 -4.371139e-08 0 0
-5 -2 7 -1 -8.742278e-08 -4.371139e-08 1 1
5 4 -7 1 -8.742278e-08 -4.371139e-08 1 0
5 -2 7 1 -8.742278e-08 -4.371139e-08 0 1
5.0000005 4 7 1 -8.742278e-08 -4.371139e-08 0 0
4.9999995 -2 -7 1 -8.742278e-08 -4.371139e-08 1 1
5 4 7.0000005 0 -8.742277e-08 1 1 0
-5 -2 6.9999995 0 -8.742277e-08 1 0 1
-5 4 7.0000005 0 -8.742277e-08 1 0 0
5 -2 6.9999995 0 -8.742277e-08 1 1 1
5 -2 -7 0 0 -1 1 0
-5 4 -7 0 0 -1 0 1
-5 -2 -7 0 0 -1 0 0
5 4 -7 0 0 -1 1 1
-5 -2.0000007 -7 -8.7422784e-08 1 -4.371139e-08 1 0
5 -1.9999993 7 -8.7422784e-08 1 -4.371139e-08 0 1
5 -1.9999999 -7 -8.7422784e-08 1 -4.371139e-08 0 0
-5 -2.0000002 7 -8.7422784e-08 1 -4.371139e-08 1 1
-8 3.9999993 -10 -8.742278e-08 1 -4.371139e-08 1 0
8 4.000001 -7 -8.742278e-08 1 -4.371139e-08 0 1
8 4.0000005 -10 -8.742278e-08 1 -4.371139e-08 0 0
-8 3.9999993 -7 -8.742278e-08 1 -4.371139e-08 1 1
-8 3.9999993 7 -8.742278e-08 1 -4.371139e-08 1 0
8 4.000001 10 -8.742278e-08 1 -4.371139e-08 0 1
8 4.0000005 7 -8.742278e-08 1 -4.371139e-08 0 0
-8 3.9999993 10 -8.742278e-08 1 -4.371139e-08 1 1
8 4 -7 -4.371139e-08 1 1.9106859e-15 1 0
4.9999995 4 7 -4.371139e-08 1 1.9106859e-15 0 1
7.9999995 4 7 -4.371139e-08 1 1.9106859e-15 0 0
5.0000005 4 -7 -4.371139e-08 1 1.9106859e-15 1 1
-4.9999995 4 -7 -4.371139e-08 1 1.9106859e-15 1 0
-8 4 7 -4.371139e-08 1 1.9106859e-15 0 1
-5.0000005 4 7 -4.371139e-08 1 1.9106859e-15 0 0
-7.9999995 4 -7 -4.371139e-08 1 1.9106859e-15 1 1
3 0 1 2
3 0 3 1
3 4 5 6
3 4 7 5
3 8 9 10
3 8 11 9
3 12 13 14
3 12 15 13
3 16 17 18
3 16 19 17
3 20 21 22
3 20 23 21
3 24 25 26
3 24 27 25
3 28 29 30
3 28 31 29
3 32 33 34
3 32 35 33
3 36 37 38
3 36 39 37
3 40 41 42
3 40 43 41
3 44 45 46
3 44 47 45
3 48 49 50
3 48 51 49
3 52 53 54
3 52 55 53
